<?xml version="1.0" encoding="UTF-8" standalone="no"?>
<!DOCTYPE svg PUBLIC "-//W3C//DTD SVG 1.1//EN"
 "http://www.w3.org/Graphics/SVG/1.1/DTD/svg11.dtd">
<!-- Generated by graphviz version 2.40.1 (20161225.0304)
 -->
<!-- Title: state transitions Pages: 1 -->
<svg width="228pt" height="294pt"
 viewBox="0.00 0.00 228.00 294.00" xmlns="http://www.w3.org/2000/svg" xmlns:xlink="http://www.w3.org/1999/xlink">
<g id="graph0" class="graph" transform="scale(1 1) rotate(0) translate(4 290)">
<title>state transitions</title>
<polygon fill="#ffffff" stroke="transparent" points="-4,4 -4,-290 224,-290 224,4 -4,4"/>
<g id="clust1" class="cluster state regular">
<title>cluster_next_state</title>
<path fill="none" stroke="#000000" stroke-width="2" d="M20,-8C20,-8 200,-8 200,-8 206,-8 212,-14 212,-20 212,-20 212,-266 212,-266 212,-272 206,-278 200,-278 200,-278 20,-278 20,-278 14,-278 8,-272 8,-266 8,-266 8,-20 8,-20 8,-14 14,-8 20,-8"/>
<text text-anchor="start" x="82.8208" y="-259.2" font-family="Helvetica,sans-Serif" font-size="12.00" fill="#000000">next_state</text>
</g>
<!-- next_state -->
<!-- ST_IDLE -->
<g id="node2" class="node state regular">
<title>ST_IDLE</title>
<polygon fill="#ffffff" fill-opacity="0.003922" stroke="transparent" stroke-width="2" points="146,-240 76,-240 76,-204 146,-204 146,-240"/>
<text text-anchor="start" x="86.6622" y="-218.2" font-family="Helvetica,sans-Serif" font-size="12.00" fill="#000000">ST_IDLE</text>
<path fill="none" stroke="#000000" stroke-width="2" d="M88.3333,-205C88.3333,-205 133.6667,-205 133.6667,-205 139.3333,-205 145,-210.6667 145,-216.3333 145,-216.3333 145,-227.6667 145,-227.6667 145,-233.3333 139.3333,-239 133.6667,-239 133.6667,-239 88.3333,-239 88.3333,-239 82.6667,-239 77,-233.3333 77,-227.6667 77,-227.6667 77,-216.3333 77,-216.3333 77,-210.6667 82.6667,-205 88.3333,-205"/>
</g>
<!-- ST_CHECK_CRC -->
<g id="node3" class="node state regular">
<title>ST_CHECK_CRC</title>
<polygon fill="#ffffff" fill-opacity="0.003922" stroke="transparent" stroke-width="2" points="146,-146 28,-146 28,-110 146,-110 146,-146"/>
<text text-anchor="start" x="38.6712" y="-124.2" font-family="Helvetica,sans-Serif" font-size="12.00" fill="#000000">ST_CHECK_CRC</text>
<path fill="none" stroke="#000000" stroke-width="2" d="M40.3333,-111C40.3333,-111 133.6667,-111 133.6667,-111 139.3333,-111 145,-116.6667 145,-122.3333 145,-122.3333 145,-133.6667 145,-133.6667 145,-139.3333 139.3333,-145 133.6667,-145 133.6667,-145 40.3333,-145 40.3333,-145 34.6667,-145 29,-139.3333 29,-133.6667 29,-133.6667 29,-122.3333 29,-122.3333 29,-116.6667 34.6667,-111 40.3333,-111"/>
</g>
<!-- ST_IDLE&#45;&gt;ST_CHECK_CRC -->
<g id="edge1" class="edge transition">
<title>ST_IDLE&#45;&gt;ST_CHECK_CRC</title>
<path fill="none" stroke="#000000" d="M106.3726,-203.8759C102.9196,-190.3516 98.1368,-171.6192 94.1876,-156.1514"/>
<polygon fill="#000000" stroke="#000000" points="97.4784,-154.8918 91.6132,-146.0685 90.6959,-156.6236 97.4784,-154.8918"/>
<text text-anchor="start" x="101" y="-178" font-family="Helvetica,sans-Serif" font-size="10.00" fill="#000000">s_axis_tvalid &#160;&#160;</text>
<text text-anchor="start" x="101" y="-166" font-family="Helvetica,sans-Serif" font-size="10.00" fill="#000000">phy_link_up_i &#160;&#160;</text>
</g>
<!-- ST_PROCESS_DLLP -->
<g id="node4" class="node state regular">
<title>ST_PROCESS_DLLP</title>
<polygon fill="#ffffff" fill-opacity="0.003922" stroke="transparent" stroke-width="2" points="179.5,-52 40.5,-52 40.5,-16 179.5,-16 179.5,-52"/>
<text text-anchor="start" x="51.823" y="-30.2" font-family="Helvetica,sans-Serif" font-size="12.00" fill="#000000">ST_PROCESS_DLLP</text>
<path fill="none" stroke="#000000" stroke-width="2" d="M52.8333,-17C52.8333,-17 167.1667,-17 167.1667,-17 172.8333,-17 178.5,-22.6667 178.5,-28.3333 178.5,-28.3333 178.5,-39.6667 178.5,-39.6667 178.5,-45.3333 172.8333,-51 167.1667,-51 167.1667,-51 52.8333,-51 52.8333,-51 47.1667,-51 41.5,-45.3333 41.5,-39.6667 41.5,-39.6667 41.5,-28.3333 41.5,-28.3333 41.5,-22.6667 47.1667,-17 52.8333,-17"/>
</g>
<!-- ST_CHECK_CRC&#45;&gt;ST_PROCESS_DLLP -->
<g id="edge2" class="edge transition">
<title>ST_CHECK_CRC&#45;&gt;ST_PROCESS_DLLP</title>
<path fill="none" stroke="#000000" d="M65.6247,-109.8508C61.1879,-104.8864 57.1341,-99.1589 54.728,-93 50.8466,-83.0646 49.5847,-78.3447 54.728,-69 56.792,-65.25 59.4462,-61.8455 62.4721,-58.7662"/>
<polygon fill="#000000" stroke="#000000" points="64.8328,-61.3519 70.1042,-52.1615 60.2522,-56.0587 64.8328,-61.3519"/>
<text text-anchor="start" x="54" y="-84" font-family="Helvetica,sans-Serif" font-size="10.00" fill="#000000">crc_in_r == s_axis_tdata[15:0] &#160;&#160;</text>
<text text-anchor="start" x="54" y="-72" font-family="Helvetica,sans-Serif" font-size="10.00" fill="#000000">s_axis_tvalid &#160;&#160;</text>
</g>
<!-- ST_PROCESS_DLLP&#45;&gt;ST_IDLE -->
<g id="edge3" class="edge transition">
<title>ST_PROCESS_DLLP&#45;&gt;ST_IDLE</title>
<path fill="none" stroke="#000000" d="M179.8572,-52.0373C186.9675,-56.4977 193.2921,-62.061 198,-69 227.9985,-113.2154 207.555,-144.6316 175,-187 169.6759,-193.929 162.5724,-199.6654 155.0355,-204.3489"/>
<polygon fill="#000000" stroke="#000000" points="153.0833,-201.4307 146.0694,-209.3715 156.5044,-207.5378 153.0833,-201.4307"/>
<text text-anchor="middle" x="213.3895" y="-125" font-family="Helvetica,sans-Serif" font-size="10.00" fill="#000000"> </text>
</g>
</g>
</svg>
