<?xml version="1.0" encoding="UTF-8" standalone="no"?>
<!DOCTYPE svg PUBLIC "-//W3C//DTD SVG 1.1//EN"
 "http://www.w3.org/Graphics/SVG/1.1/DTD/svg11.dtd">
<!-- Generated by graphviz version 2.40.1 (20161225.0304)
 -->
<!-- Title: state transitions Pages: 1 -->
<svg width="586pt" height="704pt"
 viewBox="0.00 0.00 586.00 704.00" xmlns="http://www.w3.org/2000/svg" xmlns:xlink="http://www.w3.org/1999/xlink">
<g id="graph0" class="graph" transform="scale(1 1) rotate(0) translate(4 700)">
<title>state transitions</title>
<polygon fill="#ffffff" stroke="transparent" points="-4,4 -4,-700 582,-700 582,4 -4,4"/>
<g id="clust1" class="cluster state regular">
<title>cluster_next_state</title>
<path fill="none" stroke="#000000" stroke-width="2" d="M20,-8C20,-8 558,-8 558,-8 564,-8 570,-14 570,-20 570,-20 570,-676 570,-676 570,-682 564,-688 558,-688 558,-688 20,-688 20,-688 14,-688 8,-682 8,-676 8,-676 8,-20 8,-20 8,-14 14,-8 20,-8"/>
<text text-anchor="start" x="261.8208" y="-669.2" font-family="Helvetica,sans-Serif" font-size="12.00" fill="#000000">next_state</text>
</g>
<!-- next_state -->
<!-- ST_DLL_RX_IDLE -->
<g id="node2" class="node state regular">
<title>ST_DLL_RX_IDLE</title>
<polygon fill="#ffffff" fill-opacity="0.003922" stroke="transparent" stroke-width="2" points="356,-650 234,-650 234,-614 356,-614 356,-650"/>
<text text-anchor="start" x="244.6564" y="-628.2" font-family="Helvetica,sans-Serif" font-size="12.00" fill="#000000">ST_DLL_RX_IDLE</text>
<path fill="none" stroke="#000000" stroke-width="2" d="M246.3333,-615C246.3333,-615 343.6667,-615 343.6667,-615 349.3333,-615 355,-620.6667 355,-626.3333 355,-626.3333 355,-637.6667 355,-637.6667 355,-643.3333 349.3333,-649 343.6667,-649 343.6667,-649 246.3333,-649 246.3333,-649 240.6667,-649 235,-643.3333 235,-637.6667 235,-637.6667 235,-626.3333 235,-626.3333 235,-620.6667 240.6667,-615 246.3333,-615"/>
</g>
<!-- ST_DLL_RX_SEQ_NUM -->
<g id="node3" class="node state regular">
<title>ST_DLL_RX_SEQ_NUM</title>
<polygon fill="#ffffff" fill-opacity="0.003922" stroke="transparent" stroke-width="2" points="205.5,-568 50.5,-568 50.5,-532 205.5,-532 205.5,-568"/>
<text text-anchor="start" x="61.8262" y="-546.2" font-family="Helvetica,sans-Serif" font-size="12.00" fill="#000000">ST_DLL_RX_SEQ_NUM</text>
<path fill="none" stroke="#000000" stroke-width="2" d="M62.8333,-533C62.8333,-533 193.1667,-533 193.1667,-533 198.8333,-533 204.5,-538.6667 204.5,-544.3333 204.5,-544.3333 204.5,-555.6667 204.5,-555.6667 204.5,-561.3333 198.8333,-567 193.1667,-567 193.1667,-567 62.8333,-567 62.8333,-567 57.1667,-567 51.5,-561.3333 51.5,-555.6667 51.5,-555.6667 51.5,-544.3333 51.5,-544.3333 51.5,-538.6667 57.1667,-533 62.8333,-533"/>
</g>
<!-- ST_DLL_RX_IDLE&#45;&gt;ST_DLL_RX_SEQ_NUM -->
<g id="edge1" class="edge transition">
<title>ST_DLL_RX_IDLE&#45;&gt;ST_DLL_RX_SEQ_NUM</title>
<path fill="none" stroke="#000000" d="M233.9777,-629.6201C182.177,-626.1652 113.5589,-617.7043 96.181,-597 90.7171,-590.4902 92.5468,-583.0319 97.3756,-576.0031"/>
<polygon fill="#000000" stroke="#000000" points="100.3452,-577.9143 104.1645,-568.0318 95.016,-573.3756 100.3452,-577.9143"/>
<text text-anchor="start" x="96" y="-588" font-family="Helvetica,sans-Serif" font-size="10.00" fill="#000000">s_axis_skid_tvalid &amp;&amp; s_axis_skid_tready &#160;&#160;</text>
</g>
<!-- ST_DLL_RX_TLP -->
<g id="node4" class="node state regular">
<title>ST_DLL_RX_TLP</title>
<polygon fill="#ffffff" fill-opacity="0.003922" stroke="transparent" stroke-width="2" points="214,-486 96,-486 96,-450 214,-450 214,-486"/>
<text text-anchor="start" x="106.9898" y="-464.2" font-family="Helvetica,sans-Serif" font-size="12.00" fill="#000000">ST_DLL_RX_TLP</text>
<path fill="none" stroke="#000000" stroke-width="2" d="M108.3333,-451C108.3333,-451 201.6667,-451 201.6667,-451 207.3333,-451 213,-456.6667 213,-462.3333 213,-462.3333 213,-473.6667 213,-473.6667 213,-479.3333 207.3333,-485 201.6667,-485 201.6667,-485 108.3333,-485 108.3333,-485 102.6667,-485 97,-479.3333 97,-473.6667 97,-473.6667 97,-462.3333 97,-462.3333 97,-456.6667 102.6667,-451 108.3333,-451"/>
</g>
<!-- ST_DLL_RX_SEQ_NUM&#45;&gt;ST_DLL_RX_TLP -->
<g id="edge2" class="edge transition">
<title>ST_DLL_RX_SEQ_NUM&#45;&gt;ST_DLL_RX_TLP</title>
<path fill="none" stroke="#000000" d="M133.9922,-531.8015C137.4878,-521.1853 141.9681,-507.5784 145.8926,-495.6596"/>
<polygon fill="#000000" stroke="#000000" points="149.2214,-496.7406 149.0246,-486.1476 142.5726,-494.5513 149.2214,-496.7406"/>
<text text-anchor="start" x="143" y="-506" font-family="Helvetica,sans-Serif" font-size="10.00" fill="#000000">s_axis_skid_tvalid &#160;&#160;</text>
</g>
<!-- ST_DLL_EOP -->
<g id="node5" class="node state regular">
<title>ST_DLL_EOP</title>
<polygon fill="#ffffff" fill-opacity="0.003922" stroke="transparent" stroke-width="2" points="281,-392 183,-392 183,-356 281,-356 281,-392"/>
<text text-anchor="start" x="193.99" y="-370.2" font-family="Helvetica,sans-Serif" font-size="12.00" fill="#000000">ST_DLL_EOP</text>
<path fill="none" stroke="#000000" stroke-width="2" d="M195.3333,-357C195.3333,-357 268.6667,-357 268.6667,-357 274.3333,-357 280,-362.6667 280,-368.3333 280,-368.3333 280,-379.6667 280,-379.6667 280,-385.3333 274.3333,-391 268.6667,-391 268.6667,-391 195.3333,-391 195.3333,-391 189.6667,-391 184,-385.3333 184,-379.6667 184,-379.6667 184,-368.3333 184,-368.3333 184,-362.6667 189.6667,-357 195.3333,-357"/>
</g>
<!-- ST_DLL_RX_TLP&#45;&gt;ST_DLL_EOP -->
<g id="edge3" class="edge transition">
<title>ST_DLL_RX_TLP&#45;&gt;ST_DLL_EOP</title>
<path fill="none" stroke="#000000" d="M168.2218,-449.8701C177.0071,-438.0347 188.9374,-422.3578 200.095,-409 202.6316,-405.9631 205.3421,-402.8312 208.0713,-399.7472"/>
<polygon fill="#000000" stroke="#000000" points="210.7196,-402.0366 214.806,-392.2615 205.5157,-397.3547 210.7196,-402.0366"/>
<text text-anchor="start" x="200" y="-424" font-family="Helvetica,sans-Serif" font-size="10.00" fill="#000000">s_axis_skid_tlast &#160;&#160;</text>
<text text-anchor="start" x="200" y="-412" font-family="Helvetica,sans-Serif" font-size="10.00" fill="#000000">s_axis_skid_tvalid &#160;&#160;</text>
</g>
<!-- ST_DLL_EOP&#45;&gt;ST_DLL_RX_IDLE -->
<g id="edge6" class="edge transition">
<title>ST_DLL_EOP&#45;&gt;ST_DLL_RX_IDLE</title>
<path fill="none" stroke="#000000" d="M277.1152,-392.1656C287.2134,-399.2637 295,-408.7187 295,-421 295,-591 295,-591 295,-591 295,-595.0484 295,-599.3216 295,-603.52"/>
<polygon fill="#000000" stroke="#000000" points="291.5001,-603.6312 295,-613.6312 298.5001,-603.6313 291.5001,-603.6312"/>
<text text-anchor="start" x="295" y="-506" font-family="Helvetica,sans-Serif" font-size="10.00" fill="#000000">not (crc_out32 == crc_in_r) &#160;&#160;</text>
</g>
<!-- ST_ACK_DLLP -->
<g id="node6" class="node state regular">
<title>ST_ACK_DLLP</title>
<polygon fill="#ffffff" fill-opacity="0.003922" stroke="transparent" stroke-width="2" points="349.5,-298 244.5,-298 244.5,-262 349.5,-262 349.5,-298"/>
<text text-anchor="start" x="255.8246" y="-276.2" font-family="Helvetica,sans-Serif" font-size="12.00" fill="#000000">ST_ACK_DLLP</text>
<path fill="none" stroke="#000000" stroke-width="2" d="M256.8333,-263C256.8333,-263 337.1667,-263 337.1667,-263 342.8333,-263 348.5,-268.6667 348.5,-274.3333 348.5,-274.3333 348.5,-285.6667 348.5,-285.6667 348.5,-291.3333 342.8333,-297 337.1667,-297 337.1667,-297 256.8333,-297 256.8333,-297 251.1667,-297 245.5,-291.3333 245.5,-285.6667 245.5,-285.6667 245.5,-274.3333 245.5,-274.3333 245.5,-268.6667 251.1667,-263 256.8333,-263"/>
</g>
<!-- ST_DLL_EOP&#45;&gt;ST_ACK_DLLP -->
<g id="edge4" class="edge transition">
<title>ST_DLL_EOP&#45;&gt;ST_ACK_DLLP</title>
<path fill="none" stroke="#000000" d="M182.6904,-371.0967C136.0387,-367.198 70.8524,-358.3682 54.938,-339 48.1662,-330.7586 47.956,-323.0641 54.938,-315 66.5701,-301.565 166.5009,-290.7343 234.2737,-284.8469"/>
<polygon fill="#000000" stroke="#000000" points="234.7742,-288.317 244.4405,-283.9796 234.1791,-281.3423 234.7742,-288.317"/>
<text text-anchor="start" x="54" y="-330" font-family="Helvetica,sans-Serif" font-size="10.00" fill="#000000">next_recv_seq_num_r == next_transmit_seq_r &#160;&#160;</text>
<text text-anchor="start" x="54" y="-318" font-family="Helvetica,sans-Serif" font-size="10.00" fill="#000000">crc_out32 == crc_in_r &#160;&#160;</text>
</g>
<!-- ST_DLL_EOP&#45;&gt;ST_ACK_DLLP -->
<g id="edge5" class="edge transition">
<title>ST_DLL_EOP&#45;&gt;ST_ACK_DLLP</title>
<path fill="none" stroke="#000000" d="M255.4911,-355.8436C261.0467,-350.8017 266.6216,-345.04 271,-339 277.8704,-329.5222 283.4664,-317.9421 287.6827,-307.5589"/>
<polygon fill="#000000" stroke="#000000" points="291.0052,-308.6691 291.299,-298.0783 284.4648,-306.1743 291.0052,-308.6691"/>
<text text-anchor="start" x="284" y="-324" font-family="Helvetica,sans-Serif" font-size="10.00" fill="#000000">crc_out32 == crc_in_r &#160;&#160;</text>
</g>
<!-- ST_ACK_DLLP_CRC -->
<g id="node7" class="node state regular">
<title>ST_ACK_DLLP_CRC</title>
<polygon fill="#ffffff" fill-opacity="0.003922" stroke="transparent" stroke-width="2" points="371,-216 233,-216 233,-180 371,-180 371,-216"/>
<text text-anchor="start" x="243.995" y="-194.2" font-family="Helvetica,sans-Serif" font-size="12.00" fill="#000000">ST_ACK_DLLP_CRC</text>
<path fill="none" stroke="#000000" stroke-width="2" d="M245.3333,-181C245.3333,-181 358.6667,-181 358.6667,-181 364.3333,-181 370,-186.6667 370,-192.3333 370,-192.3333 370,-203.6667 370,-203.6667 370,-209.3333 364.3333,-215 358.6667,-215 358.6667,-215 245.3333,-215 245.3333,-215 239.6667,-215 234,-209.3333 234,-203.6667 234,-203.6667 234,-192.3333 234,-192.3333 234,-186.6667 239.6667,-181 245.3333,-181"/>
</g>
<!-- ST_ACK_DLLP&#45;&gt;ST_ACK_DLLP_CRC -->
<g id="edge7" class="edge transition">
<title>ST_ACK_DLLP&#45;&gt;ST_ACK_DLLP_CRC</title>
<path fill="none" stroke="#000000" d="M298.1097,-261.8015C298.744,-251.3976 299.5536,-238.1215 300.2697,-226.3768"/>
<polygon fill="#000000" stroke="#000000" points="303.7782,-226.3421 300.8934,-216.1476 296.7912,-225.916 303.7782,-226.3421"/>
<text text-anchor="start" x="299" y="-236" font-family="Helvetica,sans-Serif" font-size="10.00" fill="#000000">m_axis_dllp2phy_tready &#160;&#160;</text>
</g>
<!-- ST_SEND_FC_DLLP -->
<g id="node8" class="node state regular">
<title>ST_SEND_FC_DLLP</title>
<polygon fill="#ffffff" fill-opacity="0.003922" stroke="transparent" stroke-width="2" points="373,-134 237,-134 237,-98 373,-98 373,-134"/>
<text text-anchor="start" x="247.661" y="-112.2" font-family="Helvetica,sans-Serif" font-size="12.00" fill="#000000">ST_SEND_FC_DLLP</text>
<path fill="none" stroke="#000000" stroke-width="2" d="M249.3333,-99C249.3333,-99 360.6667,-99 360.6667,-99 366.3333,-99 372,-104.6667 372,-110.3333 372,-110.3333 372,-121.6667 372,-121.6667 372,-127.3333 366.3333,-133 360.6667,-133 360.6667,-133 249.3333,-133 249.3333,-133 243.6667,-133 238,-127.3333 238,-121.6667 238,-121.6667 238,-110.3333 238,-110.3333 238,-104.6667 243.6667,-99 249.3333,-99"/>
</g>
<!-- ST_ACK_DLLP_CRC&#45;&gt;ST_SEND_FC_DLLP -->
<g id="edge8" class="edge transition">
<title>ST_ACK_DLLP_CRC&#45;&gt;ST_SEND_FC_DLLP</title>
<path fill="none" stroke="#000000" d="M302.6658,-179.8015C303.0464,-169.3976 303.5321,-156.1215 303.9618,-144.3768"/>
<polygon fill="#000000" stroke="#000000" points="307.468,-144.2689 304.3361,-134.1476 300.4727,-144.0129 307.468,-144.2689"/>
<text text-anchor="start" x="303" y="-154" font-family="Helvetica,sans-Serif" font-size="10.00" fill="#000000">m_axis_dllp2phy_tready &#160;&#160;</text>
</g>
<!-- ST_SEND_FC_DLLP_CRC -->
<g id="node9" class="node state regular">
<title>ST_SEND_FC_DLLP_CRC</title>
<polygon fill="#ffffff" fill-opacity="0.003922" stroke="transparent" stroke-width="2" points="460.5,-52 291.5,-52 291.5,-16 460.5,-16 460.5,-52"/>
<text text-anchor="start" x="302.8314" y="-30.2" font-family="Helvetica,sans-Serif" font-size="12.00" fill="#000000">ST_SEND_FC_DLLP_CRC</text>
<path fill="none" stroke="#000000" stroke-width="2" d="M303.8333,-17C303.8333,-17 448.1667,-17 448.1667,-17 453.8333,-17 459.5,-22.6667 459.5,-28.3333 459.5,-28.3333 459.5,-39.6667 459.5,-39.6667 459.5,-45.3333 453.8333,-51 448.1667,-51 448.1667,-51 303.8333,-51 303.8333,-51 298.1667,-51 292.5,-45.3333 292.5,-39.6667 292.5,-39.6667 292.5,-28.3333 292.5,-28.3333 292.5,-22.6667 298.1667,-17 303.8333,-17"/>
</g>
<!-- ST_SEND_FC_DLLP&#45;&gt;ST_SEND_FC_DLLP_CRC -->
<g id="edge9" class="edge transition">
<title>ST_SEND_FC_DLLP&#45;&gt;ST_SEND_FC_DLLP_CRC</title>
<path fill="none" stroke="#000000" d="M309.545,-97.7011C312.5112,-88.4015 317.1111,-77.3365 323.861,-69 326.9568,-65.1765 330.5812,-61.6135 334.4517,-58.3379"/>
<polygon fill="#000000" stroke="#000000" points="336.8618,-60.8996 342.6515,-52.0266 332.5922,-55.3524 336.8618,-60.8996"/>
<text text-anchor="start" x="323" y="-72" font-family="Helvetica,sans-Serif" font-size="10.00" fill="#000000">m_axis_dllp2phy_tready &#160;&#160;</text>
</g>
<!-- ST_SEND_FC_DLLP_CRC&#45;&gt;ST_DLL_RX_IDLE -->
<g id="edge10" class="edge transition">
<title>ST_SEND_FC_DLLP_CRC&#45;&gt;ST_DLL_RX_IDLE</title>
<path fill="none" stroke="#000000" d="M433.4854,-52.1141C440.9147,-57.8242 446,-65.2821 446,-75 446,-591 446,-591 446,-591 446,-608.954 405.7396,-619.2983 366.7964,-625.1045"/>
<polygon fill="#000000" stroke="#000000" points="365.837,-621.7045 356.4175,-626.5545 366.8056,-628.6371 365.837,-621.7045"/>
<text text-anchor="start" x="446" y="-324" font-family="Helvetica,sans-Serif" font-size="10.00" fill="#000000">m_axis_dllp2phy_tready &#160;&#160;</text>
</g>
</g>
</svg>
