<?xml version="1.0" encoding="UTF-8" standalone="no"?>
<!DOCTYPE svg PUBLIC "-//W3C//DTD SVG 1.1//EN"
 "http://www.w3.org/Graphics/SVG/1.1/DTD/svg11.dtd">
<!-- Generated by graphviz version 2.40.1 (20161225.0304)
 -->
<!-- Title: state transitions Pages: 1 -->
<svg width="308pt" height="364pt"
 viewBox="0.00 0.00 308.46 364.00" xmlns="http://www.w3.org/2000/svg" xmlns:xlink="http://www.w3.org/1999/xlink">
<g id="graph0" class="graph" transform="scale(1 1) rotate(0) translate(4 360)">
<title>state transitions</title>
<polygon fill="#ffffff" stroke="transparent" points="-4,4 -4,-360 304.463,-360 304.463,4 -4,4"/>
<g id="clust1" class="cluster state regular">
<title>cluster_tlp_next_state</title>
<path fill="none" stroke="#000000" stroke-width="2" d="M20,-8C20,-8 230,-8 230,-8 236,-8 242,-14 242,-20 242,-20 242,-336 242,-336 242,-342 236,-348 230,-348 230,-348 20,-348 20,-348 14,-348 8,-342 8,-336 8,-336 8,-20 8,-20 8,-14 14,-8 20,-8"/>
<text text-anchor="start" x="87.6512" y="-329.2" font-family="Helvetica,sans-Serif" font-size="12.00" fill="#000000">tlp_next_state</text>
</g>
<!-- tlp_next_state -->
<!-- ST_TLP_RX_IDLE -->
<g id="node2" class="node state regular">
<title>ST_TLP_RX_IDLE</title>
<polygon fill="#ffffff" fill-opacity="0.003922" stroke="transparent" stroke-width="2" points="170,-310 48,-310 48,-274 170,-274 170,-310"/>
<text text-anchor="start" x="58.6564" y="-288.2" font-family="Helvetica,sans-Serif" font-size="12.00" fill="#000000">ST_TLP_RX_IDLE</text>
<path fill="none" stroke="#000000" stroke-width="2" d="M60.3333,-275C60.3333,-275 157.6667,-275 157.6667,-275 163.3333,-275 169,-280.6667 169,-286.3333 169,-286.3333 169,-297.6667 169,-297.6667 169,-303.3333 163.3333,-309 157.6667,-309 157.6667,-309 60.3333,-309 60.3333,-309 54.6667,-309 49,-303.3333 49,-297.6667 49,-297.6667 49,-286.3333 49,-286.3333 49,-280.6667 54.6667,-275 60.3333,-275"/>
</g>
<!-- ST_TLP_GET_WD_CNT -->
<g id="node3" class="node state regular">
<title>ST_TLP_GET_WD_CNT</title>
<polygon fill="#ffffff" fill-opacity="0.003922" stroke="transparent" stroke-width="2" points="171.5,-228 16.5,-228 16.5,-192 171.5,-192 171.5,-228"/>
<text text-anchor="start" x="27.8322" y="-206.2" font-family="Helvetica,sans-Serif" font-size="12.00" fill="#000000">ST_TLP_GET_WD_CNT</text>
<path fill="none" stroke="#000000" stroke-width="2" d="M28.8333,-193C28.8333,-193 159.1667,-193 159.1667,-193 164.8333,-193 170.5,-198.6667 170.5,-204.3333 170.5,-204.3333 170.5,-215.6667 170.5,-215.6667 170.5,-221.3333 164.8333,-227 159.1667,-227 159.1667,-227 28.8333,-227 28.8333,-227 23.1667,-227 17.5,-221.3333 17.5,-215.6667 17.5,-215.6667 17.5,-204.3333 17.5,-204.3333 17.5,-198.6667 23.1667,-193 28.8333,-193"/>
</g>
<!-- ST_TLP_RX_IDLE&#45;&gt;ST_TLP_GET_WD_CNT -->
<g id="edge1" class="edge transition">
<title>ST_TLP_RX_IDLE&#45;&gt;ST_TLP_GET_WD_CNT</title>
<path fill="none" stroke="#000000" d="M105.671,-273.8015C103.7484,-263.2915 101.2897,-249.8503 99.1252,-238.0177"/>
<polygon fill="#000000" stroke="#000000" points="102.562,-237.3545 97.3197,-228.1476 95.6763,-238.6142 102.562,-237.3545"/>
<text text-anchor="start" x="102" y="-248" font-family="Helvetica,sans-Serif" font-size="10.00" fill="#000000">!fifo_empty &#160;&#160;</text>
</g>
<!-- ST_TLP_RX_STREAM -->
<g id="node4" class="node state regular">
<title>ST_TLP_RX_STREAM</title>
<polygon fill="#ffffff" fill-opacity="0.003922" stroke="transparent" stroke-width="2" points="164,-146 18,-146 18,-110 164,-110 164,-146"/>
<text text-anchor="start" x="28.9936" y="-124.2" font-family="Helvetica,sans-Serif" font-size="12.00" fill="#000000">ST_TLP_RX_STREAM</text>
<path fill="none" stroke="#000000" stroke-width="2" d="M30.3333,-111C30.3333,-111 151.6667,-111 151.6667,-111 157.3333,-111 163,-116.6667 163,-122.3333 163,-122.3333 163,-133.6667 163,-133.6667 163,-139.3333 157.3333,-145 151.6667,-145 151.6667,-145 30.3333,-145 30.3333,-145 24.6667,-145 19,-139.3333 19,-133.6667 19,-133.6667 19,-122.3333 19,-122.3333 19,-116.6667 24.6667,-111 30.3333,-111"/>
</g>
<!-- ST_TLP_GET_WD_CNT&#45;&gt;ST_TLP_RX_STREAM -->
<g id="edge2" class="edge transition">
<title>ST_TLP_GET_WD_CNT&#45;&gt;ST_TLP_RX_STREAM</title>
<path fill="none" stroke="#000000" d="M93.3342,-191.8015C92.9536,-181.3976 92.4679,-168.1215 92.0382,-156.3768"/>
<polygon fill="#000000" stroke="#000000" points="95.5273,-156.0129 91.6639,-146.1476 88.532,-156.2689 95.5273,-156.0129"/>
<text text-anchor="middle" x="93.3895" y="-166" font-family="Helvetica,sans-Serif" font-size="10.00" fill="#000000"> </text>
</g>
<!-- ST_TLP_RX_EOP -->
<g id="node5" class="node state regular">
<title>ST_TLP_RX_EOP</title>
<polygon fill="#ffffff" fill-opacity="0.003922" stroke="transparent" stroke-width="2" points="185.5,-52 64.5,-52 64.5,-16 185.5,-16 185.5,-52"/>
<text text-anchor="start" x="75.8218" y="-30.2" font-family="Helvetica,sans-Serif" font-size="12.00" fill="#000000">ST_TLP_RX_EOP</text>
<path fill="none" stroke="#000000" stroke-width="2" d="M76.8333,-17C76.8333,-17 173.1667,-17 173.1667,-17 178.8333,-17 184.5,-22.6667 184.5,-28.3333 184.5,-28.3333 184.5,-39.6667 184.5,-39.6667 184.5,-45.3333 178.8333,-51 173.1667,-51 173.1667,-51 76.8333,-51 76.8333,-51 71.1667,-51 65.5,-45.3333 65.5,-39.6667 65.5,-39.6667 65.5,-28.3333 65.5,-28.3333 65.5,-22.6667 71.1667,-17 76.8333,-17"/>
</g>
<!-- ST_TLP_RX_STREAM&#45;&gt;ST_TLP_RX_EOP -->
<g id="edge3" class="edge transition">
<title>ST_TLP_RX_STREAM&#45;&gt;ST_TLP_RX_EOP</title>
<path fill="none" stroke="#000000" d="M67.015,-109.8224C62.2474,-104.9309 57.9071,-99.243 55.284,-93 51.1522,-83.1661 49.6836,-78.0782 55.284,-69 57.7094,-65.0685 60.7261,-61.5632 64.1336,-58.4405"/>
<polygon fill="#000000" stroke="#000000" points="66.4053,-61.1075 72.1393,-52.1984 62.101,-55.5872 66.4053,-61.1075"/>
<text text-anchor="start" x="55" y="-84" font-family="Helvetica,sans-Serif" font-size="10.00" fill="#000000">tlp_curr_count_r == tx_word_count_r &#160;&#160;</text>
<text text-anchor="start" x="55" y="-72" font-family="Helvetica,sans-Serif" font-size="10.00" fill="#000000">m_axis_tlp_tready &#160;&#160;</text>
</g>
<!-- ST_TLP_RX_EOP&#45;&gt;ST_TLP_RX_IDLE -->
<g id="edge4" class="edge transition">
<title>ST_TLP_RX_EOP&#45;&gt;ST_TLP_RX_IDLE</title>
<path fill="none" stroke="#000000" d="M185.6064,-48.1733C204.7282,-53.9529 222.3634,-61.1314 228,-69 234.2117,-77.6713 229.7086,-82.4711 228,-93 227.5656,-95.6767 208.0825,-213.4988 164,-257 160.0223,-260.9252 155.5331,-264.6383 150.8775,-268.075"/>
<polygon fill="#000000" stroke="#000000" points="148.6225,-265.3792 142.3925,-273.9488 152.6068,-271.1347 148.6225,-265.3792"/>
<text text-anchor="start" x="211" y="-166" font-family="Helvetica,sans-Serif" font-size="10.00" fill="#000000">m_axis_tlp_tready &#160;&#160;</text>
</g>
</g>
</svg>
